<svg xmlns="http://www.w3.org/2000/svg" viewBox="0 0 100 100" width="100" height="100">
  <!-- Robot head -->
  <rect x="20" y="15" width="60" height="50" rx="8" fill="#4a90e2" stroke="#2c3e50" stroke-width="2"/>
  
  <!-- Eyes -->
  <circle cx="35" cy="35" r="6" fill="#ecf0f1"/>
  <circle cx="65" cy="35" r="6" fill="#ecf0f1"/>
  <circle cx="35" cy="35" r="3" fill="#2c3e50"/>
  <circle cx="65" cy="35" r="3" fill="#2c3e50"/>
  
  <!-- Antenna -->
  <line x1="50" y1="15" x2="50" y2="5" stroke="#2c3e50" stroke-width="2"/>
  <circle cx="50" cy="5" r="3" fill="#e74c3c"/>
  
  <!-- Mouth -->
  <rect x="40" y="50" width="20" height="3" rx="1" fill="#2c3e50"/>
  
  <!-- Body -->
  <rect x="25" y="65" width="50" height="25" rx="5" fill="#34495e" stroke="#2c3e50" stroke-width="2"/>
  
  <!-- Arms -->
  <rect x="15" y="70" width="8" height="15" rx="4" fill="#4a90e2"/>
  <rect x="77" y="70" width="8" height="15" rx="4" fill="#4a90e2"/>
  
  <!-- Legs -->
  <rect x="30" y="90" width="8" height="8" rx="4" fill="#34495e"/>
  <rect x="62" y="90" width="8" height="8" rx="4" fill="#34495e"/>
  
  <!-- Chest panel -->
  <rect x="30" y="70" width="40" height="15" rx="3" fill="#2c3e50" opacity="0.3"/>
  <circle cx="40" cy="77" r="2" fill="#e74c3c"/>
  <circle cx="50" cy="77" r="2" fill="#f39c12"/>
  <circle cx="60" cy="77" r="2" fill="#27ae60"/>
</svg>